Coordinates
version=1
nRows=16
nColumns=40
inDegrees=yes

Units are S.I. units (second, meters, Newtons, ...)
Angles are in degrees.

endheader
time	pelvis_tilt	pelvis_list	pelvis_rotation	pelvis_tx	pelvis_ty	pelvis_tz	hip_flexion_r	hip_adduction_r	hip_rotation_r	knee_angle_r	knee_angle_r_beta	ankle_angle_r	subtalar_angle_r	mtp_angle_r	hip_flexion_l	hip_adduction_l	hip_rotation_l	knee_angle_l	knee_angle_l_beta	ankle_angle_l	subtalar_angle_l	mtp_angle_l	lumbar_extension	lumbar_bending	lumbar_rotation	arm_flex_r	arm_add_r	arm_rot_r	elbow_flex_r	pro_sup_r	wrist_flex_r	wrist_dev_r	arm_flex_l	arm_add_l	arm_rot_l	elbow_flex_l	pro_sup_l	wrist_flex_l	wrist_dev_l
     19.54414286	     -4.34384049	     -7.13263196	      5.67130533	      1.04442867	      0.93076924	      0.48063944	      9.02247380	      6.16437965	    -16.22693945	     11.57046391	     11.57046391	      9.02581699	     -2.46627858	     -2.37595106	     40.11804454	    -13.14759874	      3.13539556	     63.55809277	     63.55809277	      9.41335049	    -19.57324722	     23.58013223	    -11.46896611	      5.51652353	      0.86592703	     24.46581951	    -16.22156794	     -1.34979972	     75.22121706	     44.79393124	      0.00000000	      0.00000000	      2.23168235	     -7.50512642	      0.12429450	     30.47086933	     46.71312703	      0.00000000	      0.00000000
     19.55578571	     -4.66572135	     -6.79989665	      5.77162453	      1.04203366	      0.93085434	      0.48013617	      8.76942508	      5.75966478	    -16.56196506	     11.32024318	     11.32024318	      9.39413046	     -1.66272880	     -2.30570937	     40.78905501	    -11.92239030	      3.30924823	     60.15840781	     60.15840781	      9.21680669	    -19.47232806	     21.61880356	    -11.50373912	      5.09009563	      1.94562900	     25.88137053	    -17.56555778	     -1.08778359	     79.55567541	     44.68466952	      0.00000000	      0.00000000	      2.66460940	     -6.92676323	      0.87324188	     26.63772945	     46.57895572	      0.00000000	      0.00000000
     19.56742857	     -5.11375437	     -6.57675167	      5.89056819	      1.03960408	      0.93058876	      0.47952295	      8.65769881	      5.51292517	    -16.62860525	     11.01761411	     11.01761411	      9.60185672	     -1.57740699	     -2.32617317	     41.53313992	    -10.64760935	      3.89127011	     56.59239043	     56.59239043	      9.40843536	    -19.29438118	     21.32114197	    -11.33587761	      4.79369481	      2.12003407	     28.67912508	    -17.58236855	     -1.49988982	     81.37813779	     44.65494689	      0.00000000	      0.00000000	      1.49363988	     -6.74677701	      0.99189339	     25.93539101	     46.53371351	      0.00000000	      0.00000000
     19.57907143	     -5.38811262	     -6.31717172	      6.00784609	      1.03746264	      0.93052172	      0.47870680	      8.34288486	      5.15516994	    -17.17951021	     10.78446213	     10.78446213	     10.00157693	     -0.52677417	     -2.41174803	     41.63553713	     -9.53114520	      4.32379922	     52.34426797	     52.34426797	      8.33955197	    -18.97882674	     17.48270364	    -11.46989014	      4.53685086	      2.17911084	     30.78238754	    -17.63334842	     -1.27720896	     85.36044018	     44.56549099	      0.00000000	      0.00000000	      0.43116382	     -6.63644500	      1.59998022	     24.74367090	     46.37640899	      0.00000000	      0.00000000
     19.59071429	     -5.72838974	     -6.13611808	      6.08945622	      1.03547096	      0.93019418	      0.47789086	      8.09375067	      4.94380760	    -17.24242166	     10.50416042	     10.50416042	     10.28332040	     -0.28391655	     -2.44771245	     41.71892902	     -8.48417148	      5.05271142	     48.08542178	     48.08542178	      8.16538467	    -18.36075193	     16.19567645	    -11.42067416	      4.34392004	      2.08301477	     33.41981724	    -17.24507731	     -1.39961929	     87.74869183	     44.52061100	      0.00000000	      0.00000000	     -0.87687560	     -6.55641281	      1.90353847	     24.17963592	     46.28188673	      0.00000000	      0.00000000
     19.60235714	     -5.96831152	     -5.93568962	      6.13738602	      1.03377240	      0.92987072	      0.47705947	      7.71564506	      4.72208037	    -17.34246423	     10.23739786	     10.23739786	     10.60444763	      0.07161704	     -2.53670418	     41.46578498	     -7.65025669	      5.60327497	     43.66512094	     43.66512094	      8.19454775	    -17.17019102	     15.04239896	    -11.44643803	      4.07646161	      2.22040528	     35.88195917	    -17.11973874	     -1.31504074	     89.94666574	     44.47103727	      0.00000000	      0.00000000	     -2.14329251	     -6.47214453	      2.13537433	     23.91633858	     46.20173023	      0.00000000	      0.00000000
     19.61400000	     -6.19787424	     -5.88736528	      6.15336991	      1.03239777	      0.92924651	      0.47619884	      7.32719519	      4.63750997	    -17.64600958	     10.00076053	     10.00076053	     11.04684576	      0.83964134	     -2.57394667	     40.97500058	     -7.20063930	      5.93676656	     38.99652834	     38.99652834	      7.05618838	    -15.83401450	     10.71143310	    -11.44669580	      4.01785319	      2.62879877	     38.06477153	    -17.61259570	     -0.71772300	     92.73346663	     44.43170827	      0.00000000	      0.00000000	     -3.72775707	     -6.59167843	      3.06024505	     24.86863552	     45.94672207	      0.00000000	      0.00000000
     19.62564286	     -6.37285625	     -5.85504780	      6.17469116	      1.03126627	      0.92854335	      0.47529028	      6.86822204	      4.62488418	    -17.56702653	      9.74151065	      9.74151065	     11.39821238	      0.93953702	     -2.68593628	     40.47827250	     -6.81562893	      6.27720066	     34.82193671	     34.82193671	      7.50918058	    -13.99289875	     10.81606876	    -11.41653295	      3.96899697	      2.68492526	     40.50006149	    -17.15590718	     -0.78492340	     94.38165737	     44.40280290	      0.00000000	      0.00000000	     -4.98757041	     -6.51151293	      3.30773931	     24.53613824	     45.87238320	      0.00000000	      0.00000000
     19.63728571	     -6.55288683	     -5.86031818	      6.16726683	      1.03042170	      0.92760418	      0.47428869	      6.41957716	      4.63919564	    -17.50440044	      9.52186637	      9.52186637	     11.79544773	      1.09119656	     -2.83889406	     39.92790779	     -6.57147969	      6.41178491	     30.95574083	     30.95574083	      7.93291554	    -12.25405623	     11.14866704	    -11.29755192	      3.95434661	      2.93046552	     42.81044925	    -16.98894676	     -0.75681427	     95.86069789	     44.37107427	      0.00000000	      0.00000000	     -6.16293031	     -6.43714974	      3.43462429	     24.38132653	     45.82220019	      0.00000000	      0.00000000
     19.64892857	     -6.56373535	     -5.93885942	      6.15501650	      1.03002759	      0.92666835	      0.47326099	      5.74802992	      4.75359307	    -17.48695524	      9.27891435	      9.27891435	     12.23423643	      1.38736715	     -2.99253818	     39.20449521	     -6.50570020	      6.31297923	     27.56843423	     27.56843423	      8.31639281	    -10.67172793	     11.58652970	    -11.34289393	      4.03782643	      2.91573138	     44.91785388	    -16.56433813	     -0.35237532	     97.74687456	     44.31747326	      0.00000000	      0.00000000	     -7.61574196	     -6.40834609	      3.60682395	     24.48344891	     45.75360116	      0.00000000	      0.00000000
     19.66057143	     -6.59298855	     -6.10297724	      6.17612964	      1.02986016	      0.92541091	      0.47208158	      5.09802926	      4.93169801	    -17.62369760	      9.06698621	      9.06698621	     12.75545555	      1.84623919	     -3.06868793	     38.63630420	     -6.53182014	      6.04248092	     24.90383431	     24.90383431	      8.69747785	     -9.36412420	     12.32942926	    -11.31378413	      4.24573869	      2.79788738	     46.99129307	    -16.36955584	      0.69517886	     99.64568694	     44.27485363	      0.00000000	      0.00000000	     -9.59087652	     -6.54909249	      4.22776603	     26.15280696	     45.57431350	      0.00000000	      0.00000000
     19.67221429	     -6.74486919	     -6.41646067	      6.10163932	      1.02992702	      0.92368894	      0.47104262	      4.69308845	      5.25776271	    -17.47477649	      9.05326547	      9.05326547	     13.27866248	      1.89896033	     -3.27094364	     38.35019407	     -6.71414059	      5.73142102	     23.02566937	     23.02566937	      8.83159619	     -8.77532117	     12.67058519	    -10.93537760	      4.52066066	      3.21773716	     48.69543879	    -16.32607414	      0.54609297	    100.40561068	     44.26596912	      0.00000000	      0.00000000	    -10.76709397	     -6.46203038	      4.29272889	     25.85831907	     45.54163325	      0.00000000	      0.00000000
     19.68385714	     -6.60143768	     -6.36164540	      6.14167756	      1.03038917	      0.92258081	      0.46956305	      3.82702455	      5.20720714	    -17.41859512	      8.93046117	      8.93046117	     14.00721323	      2.13639459	     -2.93235346	     37.48320265	     -6.59982079	      4.91914456	     21.32765836	     21.32765836	      8.74037362	     -8.23141527	     13.00398225	    -11.05933840	      4.50051046	      2.58089573	     50.61630076	    -15.23092203	      1.52737693	    101.92657098	     44.30644916	      0.00000000	      0.00000000	    -12.75614198	     -6.78232860	      6.08952091	     27.71647846	     45.20553087	      0.00000000	      0.00000000
     19.69550000	     -6.66507327	     -6.53842866	      6.06583352	      1.03099838	      0.92086753	      0.46822355	      3.28453927	      5.36721653	    -17.25306621	      8.94454882	      8.94454882	     14.55940523	      2.19236544	     -3.09557271	     37.12642581	     -6.71885540	      4.16169309	     20.59411605	     20.59411605	      8.54446741	     -8.25912661	     13.19082139	    -10.72771963	      4.64476158	      2.81653199	     51.95509047	    -15.05336070	      1.50250138	    102.72633915	     44.29169112	      0.00000000	      0.00000000	    -13.72247904	     -6.66780078	      6.16454256	     27.41121655	     45.17946293	      0.00000000	      0.00000000
     19.70714286	     -6.58795880	     -6.58970678	      6.05907729	      1.03195493	      0.91934856	      0.46666662	      2.55047385	      5.39193272	    -17.15716042	      8.97842675	      8.97842675	     15.24168074	      2.32270176	     -3.01218169	     36.53746464	     -6.73385145	      3.29971723	     20.19055260	     20.19055260	      7.96901581	     -8.49990282	     12.69097304	    -10.62421594	      4.68613547	      2.51582472	     53.03343258	    -14.26551381	      2.08101904	    104.38825381	     44.24276648	      0.00000000	      0.00000000	    -14.89848060	     -6.58012432	      6.37124000	     27.37510923	     45.13280009	      0.00000000	      0.00000000
     19.71878571	     -6.51588588	     -6.69819544	      5.97428150	      1.03311001	      0.91767153	      0.46510413	      1.89975183	      5.42885678	    -17.06942008	      9.21595099	      9.21595099	     16.25572353	      2.63318456	     -2.13978138	     35.92746175	     -6.84509797	      2.49965558	     20.03338818	     20.03338818	      6.29191892	     -9.35301190	      9.84577631	    -10.44093280	      4.76321896	      2.50111810	     53.96297435	    -13.98235325	      2.49750835	    105.49356942	     44.26286429	      0.00000000	      0.00000000	    -16.10728360	     -6.66531221	      6.87477450	     28.10224118	     45.06167199	      0.00000000	      0.00000000
